<?xml version="1.0" standalone="no"?>
<!DOCTYPE svg PUBLIC "-//W3C//DTD SVG 20010904//EN"
 "http://www.w3.org/TR/2001/REC-SVG-20010904/DTD/svg10.dtd">
<svg version="1.0" xmlns="http://www.w3.org/2000/svg"
 width="260.000000pt" height="260.000000pt" viewBox="0 0 260.000000 260.000000"
 preserveAspectRatio="xMidYMid meet">
<metadata>
Created by potrace 1.11, written by Peter Selinger 2001-2013
</metadata>
<g transform="translate(0.000000,260.000000) scale(0.100000,-0.100000)"
fill="#000000" stroke="none">
<path d="M1256 2539 c-14 -17 -27 -36 -27 -42 -1 -7 -3 -36 -4 -66 -2 -29 -8
-58 -14 -64 -15 -15 -14 -59 2 -82 14 -20 15 -80 2 -93 -3 -4 -70 -7 -148 -7
-159 -1 -228 -15 -256 -52 -11 -13 -29 -56 -41 -96 -47 -155 -127 -306 -218
-408 -66 -74 -139 -118 -259 -155 l-108 -33 117 -1 117 0 35 -112 c39 -128
154 -506 196 -648 35 -116 177 -583 191 -628 l11 -32 448 0 448 0 30 98 c71
230 209 683 267 877 34 116 79 263 99 328 l37 117 117 0 117 1 -105 32 c-58
18 -123 45 -145 59 -145 93 -260 265 -332 496 -44 144 -75 159 -320 157 -88
-1 -133 2 -134 9 0 6 -2 25 -3 41 -1 17 3 39 11 50 16 24 17 67 1 83 -6 6 -12
35 -14 64 -1 29 -2 58 -3 65 -2 21 -52 73 -71 73 -10 0 -30 -14 -44 -31z m622
-1751 c-92 -304 -175 -577 -183 -605 l-16 -53 -104 0 -104 0 65 103 c36 56 81
134 101 174 l36 72 -28 33 c-15 18 -64 73 -109 122 -44 49 -81 93 -81 98 0 5
56 39 125 76 l125 67 26 68 26 68 -66 62 c-36 34 -76 72 -88 85 -24 22 -27 22
-296 22 -233 0 -269 -2 -257 -14 8 -8 79 -57 158 -110 79 -53 137 -98 130
-101 -7 -3 -69 -16 -137 -30 -69 -14 -125 -26 -126 -28 -1 -1 -30 -99 -64
-217 -34 -118 -64 -222 -67 -231 -3 -13 127 -206 208 -307 8 -9 -15 -12 -110
-12 l-120 0 -21 68 c-11 37 -94 309 -184 605 l-164 537 747 0 747 0 -169 -552z"/>
</g>
</svg>
